<svg width="37" height="41" viewBox="0 0 37 41" fill="none" xmlns="http://www.w3.org/2000/svg">
<path d="M23.8538 30.332L13.3619 28.4921L19.0589 6.4926L4.53223 2.74906L5.24258 0L22.5254 4.44679L16.8852 26.2261L24.3439 27.5332L23.8538 30.332Z" fill="black"/>
<path d="M5.70608 23.4846C4.83235 23.4846 3.80944 23.2573 2.63736 22.6251C-1.35482 20.4798 0.314508 13.8736 0.52051 13.1277L3.26247 13.8736L1.89149 13.4971L3.26247 13.8665C2.80784 15.5358 2.39584 19.2651 3.97992 20.1175C5.5498 20.9629 6.33119 20.558 6.58692 20.423C8.44093 19.464 9.30046 15.5642 9.45674 14.2714L12.2768 14.6052C12.1987 15.2658 11.4173 21.112 7.90107 22.9447C7.34699 23.2289 6.60822 23.4775 5.70608 23.4775V23.4846Z" fill="black"/>
<path d="M29.5392 25.1394C28.6655 25.1394 27.6426 24.9121 26.4705 24.2799C22.4783 22.1346 24.1547 15.5283 24.3536 14.7825L27.0956 15.5283L25.7246 15.1519L27.0956 15.5212C26.641 17.1906 26.229 20.9199 27.8131 21.7723C29.3829 22.6176 30.1643 22.2127 30.42 22.0778C32.2741 21.1188 33.1336 17.219 33.2899 15.9261L36.11 16.26C36.0318 16.9206 35.2504 22.7668 31.7342 24.5995C31.1801 24.8837 30.4414 25.1323 29.5392 25.1323V25.1394Z" fill="black"/>
<path d="M17.3577 40.3977C8.87614 40.3977 3.9392 35.4323 3.86816 35.3542L5.90687 33.3794C6.27626 33.7559 15.1841 42.5713 30.2009 33.5641L31.6642 36.0006C26.1945 39.2824 21.3783 40.3977 17.3577 40.3977Z" fill="black"/>
</svg>
