<svg width="23" height="23" viewBox="0 0 23 23" fill="none" xmlns="http://www.w3.org/2000/svg">
<mask id="mask0_191_86" style="mask-type:alpha" maskUnits="userSpaceOnUse" x="0" y="0" width="23" height="23">
<rect width="23" height="23" fill="#D9D9D9"/>
</mask>
<g mask="url(#mask0_191_86)">
<path d="M1.9166 18.2084V16.2918H21.0833V18.2084H1.9166ZM2.87493 15.3334V14.3751C2.87493 12.3307 3.50184 10.5258 4.75566 8.96052C6.00948 7.39524 7.61868 6.40496 9.58326 5.98969V5.7501C9.58326 5.22302 9.77094 4.7718 10.1463 4.39646C10.5216 4.02111 10.9728 3.83344 11.4999 3.83344C12.027 3.83344 12.4782 4.02111 12.8536 4.39646C13.2289 4.7718 13.4166 5.22302 13.4166 5.7501V5.98969C15.3972 6.40496 17.0103 7.39524 18.2562 8.96052C19.502 10.5258 20.1249 12.3307 20.1249 14.3751V15.3334H2.87493ZM4.83951 13.4168H18.1603C17.9367 11.7557 17.194 10.382 15.9322 9.29594C14.6704 8.20982 13.193 7.66677 11.4999 7.66677C9.80687 7.66677 8.33344 8.20982 7.07962 9.29594C5.8258 10.382 5.0791 11.7557 4.83951 13.4168Z" fill="black"/>
</g>
</svg>
