<svg width="17" height="19" viewBox="0 0 17 19" fill="none" xmlns="http://www.w3.org/2000/svg">
<path d="M11.0707 14.0761L6.20181 13.2223L8.8456 3.01301L2.10425 1.27575L2.4339 0L10.4543 2.06361L7.83687 12.1707L11.2982 12.7773L11.0707 14.0761Z" fill="black"/>
<path d="M2.648 10.8981C2.24253 10.8981 1.76783 10.7926 1.22391 10.4992C-0.628726 9.5037 0.145953 6.43795 0.241551 6.09181L1.514 6.43795L0.877777 6.26323L1.514 6.43465C1.30303 7.20933 1.11183 8.93999 1.84695 9.33557C2.57548 9.72786 2.93809 9.53996 3.05677 9.47732C3.91716 9.0323 4.31603 7.22251 4.38856 6.62255L5.69727 6.77749C5.66101 7.08406 5.29839 9.79708 3.66662 10.6476C3.40949 10.7794 3.06666 10.8948 2.648 10.8948V10.8981Z" fill="black"/>
<path d="M13.7077 11.6663C13.3023 11.6663 12.8276 11.5608 12.2836 11.2674C10.431 10.2719 11.209 7.20613 11.3013 6.86L12.5737 7.20613L11.9375 7.03142L12.5737 7.20284C12.3628 7.97752 12.1716 9.70818 12.9067 10.1038C13.6352 10.496 13.9978 10.3081 14.1165 10.2455C14.9769 9.80048 15.3758 7.9907 15.4483 7.39074L16.757 7.54567C16.7207 7.85225 16.3581 10.5653 14.7264 11.4158C14.4692 11.5476 14.1264 11.663 13.7077 11.663V11.6663Z" fill="black"/>
<path d="M8.05425 18.7472C4.11823 18.7472 1.82715 16.4429 1.79419 16.4066L2.74029 15.4902C2.91171 15.6649 7.04552 19.7559 14.0143 15.5759L14.6934 16.7066C12.1551 18.2296 9.92008 18.7472 8.05425 18.7472Z" fill="black"/>
</svg>
