<svg width="90" height="21" viewBox="0 0 90 21" fill="none" xmlns="http://www.w3.org/2000/svg">
<path d="M37.48 15.0406C38.1248 14.9871 38.538 14.8304 38.7269 14.5739C38.9121 14.3174 39.0047 13.7937 39.0047 13.0029V8.36103C39.0047 7.61648 38.8266 7.05006 38.4739 6.66176C38.1212 6.27345 37.6083 6.08108 36.9314 6.08108C36.4362 6.08108 35.998 6.17371 35.6204 6.35539C35.2428 6.53707 34.8545 6.83275 34.4519 7.24599C34.484 7.60223 34.4983 7.88366 34.4983 8.08316V13.0064C34.4983 13.7901 34.5944 14.3103 34.7904 14.5703C34.9827 14.8304 35.4031 14.9871 36.0479 15.0406V15.7495H30.8824V15.0406C31.5272 14.9871 31.9404 14.8304 32.1292 14.5739C32.3145 14.3174 32.4071 13.7937 32.4071 13.0029V8.28978C32.4071 7.57017 32.2432 7.018 31.9119 6.64394C31.5806 6.26633 31.1033 6.08108 30.4763 6.08108C29.9704 6.08108 29.5216 6.18439 29.1261 6.39458C28.7307 6.60476 28.3139 6.95744 27.8793 7.45261V13.2487C27.8793 13.9326 27.9862 14.3886 28.1999 14.6166C28.4136 14.8446 28.8696 14.9871 29.5679 15.0406V15.7495H24.0889V15.0406C24.7942 14.9871 25.2538 14.8446 25.4675 14.6166C25.6813 14.3886 25.7881 13.9326 25.7881 13.2487V7.4063C25.7881 6.72232 25.6777 6.27702 25.464 6.06327C25.2467 5.84953 24.7907 5.74265 24.0924 5.74265V5.12636L27.2095 4.31057H27.8828V6.45157H27.9078C28.3566 5.67497 28.8554 5.10142 29.404 4.73093C29.9526 4.35688 30.6045 4.17163 31.3633 4.17163C32.1221 4.17163 32.7562 4.364 33.2585 4.74874C33.7644 5.13348 34.1171 5.69278 34.3166 6.4302C34.7654 5.66072 35.2642 5.0943 35.8128 4.7238C36.3614 4.35688 37.0133 4.17163 37.7721 4.17163C39.9915 4.17163 41.0994 5.54316 41.0994 8.28978V13.0029C41.0994 13.7937 41.1992 14.3174 41.4022 14.5739C41.6053 14.8304 42.047 14.9836 42.7274 15.0406V15.7495H37.48V15.0406Z" fill="black"/>
<path d="M48.1989 16.0879C46.6315 16.0879 45.3882 15.5678 44.462 14.5276C43.5393 13.4873 43.0762 12.098 43.0762 10.3631C43.0762 8.49284 43.5322 6.99306 44.4441 5.86378C45.3561 4.73449 46.6065 4.17163 48.1954 4.17163C49.599 4.17163 50.6784 4.58131 51.43 5.40066C52.1817 6.22002 52.5522 7.38136 52.5344 8.8847H45.121C45.1068 9.00939 45.0961 9.21601 45.0961 9.501C45.0961 10.787 45.4167 11.8237 46.0615 12.6003C46.7063 13.3805 47.5648 13.7688 48.6442 13.7688C49.3425 13.7688 49.9623 13.6013 50.5074 13.2629C51.0489 12.9245 51.4443 12.4649 51.6937 11.8843L52.4632 12.1051C52.2067 13.4553 51.7364 14.4563 51.0489 15.1082C50.3613 15.7602 49.4102 16.0843 48.1918 16.0843L48.1989 16.0879ZM45.2421 7.86229H50.201C50.201 7.02512 50.0158 6.36251 49.6488 5.87803C49.2819 5.39354 48.7119 5.15129 47.9424 5.15129C47.2691 5.15129 46.692 5.38285 46.2218 5.84953C45.748 6.3162 45.4238 6.98594 45.2457 7.86229H45.2421Z" fill="black"/>
<path d="M53.6592 15.0406C54.3645 14.9871 54.8241 14.8446 55.0378 14.6166C55.2516 14.3886 55.3585 13.9326 55.3585 13.2487V7.4063C55.3585 6.72232 55.248 6.27702 55.0343 6.06327C54.817 5.84953 54.361 5.74266 53.6627 5.74266V5.12636L56.7799 4.31057H57.4532V6.45158H57.4781C57.8735 5.72841 58.3758 5.16911 58.985 4.77012C59.5942 4.37113 60.2817 4.17163 61.0512 4.17163C62.1199 4.17163 62.95 4.50294 63.5342 5.16554C64.1184 5.82815 64.4141 6.80069 64.4141 8.0796V13.2451C64.4141 13.9291 64.5139 14.3851 64.7098 14.6131C64.9093 14.8411 65.3404 14.9836 66.0065 15.037V15.7459H60.8161V15.037C61.4538 14.9836 61.8599 14.8446 62.0451 14.6166C62.2268 14.3922 62.3194 13.9326 62.3194 13.2451V8.47503C62.3194 6.8755 61.6176 6.07752 60.214 6.07752C59.1809 6.07752 58.2618 6.53707 57.4567 7.44905V13.2451C57.4567 13.9291 57.5636 14.3851 57.7773 14.6131C57.9911 14.8411 58.4471 14.9836 59.1453 15.037V15.7459H53.6663V15.037L53.6592 15.0406Z" fill="black"/>
<path d="M70.4994 16.0879C69.4912 16.0879 68.6825 15.753 68.0805 15.0868C67.4749 14.4207 67.1721 13.4517 67.1721 12.1763V6.6261C67.1721 6.1523 67.0794 5.8103 66.8978 5.60368C66.7161 5.3935 66.3776 5.23676 65.8789 5.12632V4.45303H69.2668V11.5387C69.2668 12.5255 69.4306 13.2094 69.7619 13.5977C70.0933 13.986 70.5956 14.1784 71.2689 14.1784C72.2307 14.1784 73.1284 13.7082 73.9585 12.7713V6.6261C73.9585 6.0668 73.8587 5.69987 73.6628 5.52175C73.4633 5.34363 73.018 5.21894 72.3198 5.1477V4.44946H76.0567V12.9316C76.0567 13.6619 76.1743 14.1357 76.413 14.353C76.6481 14.5703 77.1362 15.0405 77.8736 15.0405V15.7494L74.3005 15.8884L73.962 15.6319V13.7937C73.5274 14.5917 73.0394 15.1759 72.4943 15.5393C71.9528 15.9026 71.2867 16.0879 70.5029 16.0879H70.4994Z" fill="black"/>
<path d="M84.236 15.0405C84.9342 15.0156 85.2833 14.7912 85.2833 14.3672C85.2833 14.0787 85.123 13.7474 84.806 13.3662L83.1174 11.2964L81.3967 13.2273C80.9372 13.7331 80.7092 14.1357 80.7092 14.4385C80.7092 14.8197 81.1046 15.0192 81.8955 15.0441V15.753H77.731V15.0441C78.048 15.012 78.3544 14.866 78.6501 14.6059C78.9458 14.3459 79.4552 13.8115 80.1855 13.0064L82.4548 10.4807L79.8008 7.22104C79.156 6.41594 78.7035 5.87801 78.4435 5.61439C78.1834 5.35078 77.9376 5.20472 77.7061 5.17266V4.44949H82.7326V5.17266C82.0344 5.19759 81.6853 5.41846 81.6853 5.83526C81.6853 6.12382 81.8456 6.45512 82.1626 6.8363L83.8512 8.90606L85.5968 6.97524C86.0528 6.46937 86.2844 6.06682 86.2844 5.76402C86.2844 5.38996 85.8889 5.19403 85.0981 5.16909V4.44592H89.2625V5.16909C88.9455 5.20115 88.6356 5.34721 88.3363 5.60371C88.0371 5.86376 87.5276 6.39456 86.8045 7.19254L84.5245 9.73967L87.1643 12.9743C87.8019 13.7652 88.2508 14.2996 88.5216 14.5739C88.7887 14.8482 89.0345 15.0014 89.259 15.0334V15.7423H84.2324V15.0334L84.236 15.0405Z" fill="black"/>
<path d="M11.9622 15.2115L6.70055 14.2888L9.55761 3.25605L2.27246 1.37865L2.6287 0L11.2961 2.23007L8.46751 13.1524L12.2081 13.8079L11.9622 15.2115Z" fill="black"/>
<path d="M2.8616 11.7775C2.42343 11.7775 1.91044 11.6635 1.32264 11.3464C-0.679443 10.2706 0.157726 6.95755 0.261036 6.5835L1.63613 6.95755L0.948584 6.76874L1.63613 6.95399C1.40814 7.79115 1.20152 9.66142 1.99594 10.0889C2.78323 10.5128 3.1751 10.3098 3.30334 10.2421C4.23314 9.76117 4.66419 7.8054 4.74256 7.15704L6.15684 7.32448C6.11766 7.65578 5.72579 10.5876 3.96239 11.5068C3.68452 11.6492 3.31403 11.7739 2.8616 11.7739V11.7775Z" fill="black"/>
<path d="M14.8133 12.6074C14.3751 12.6074 13.8622 12.4935 13.2744 12.1764C11.2723 11.1005 12.113 7.78751 12.2128 7.41345L13.5879 7.78751L12.9003 7.5987L13.5879 7.78394C13.3599 8.62111 13.1532 10.4914 13.9477 10.9189C14.735 11.3428 15.1268 11.1397 15.2551 11.0721C16.1849 10.5911 16.6159 8.63536 16.6943 7.987L18.1086 8.15443C18.0694 8.48574 17.6775 11.4176 15.9141 12.3367C15.6362 12.4792 15.2658 12.6039 14.8133 12.6039V12.6074Z" fill="black"/>
<path d="M8.70547 20.2595C4.45194 20.2595 1.97605 17.7694 1.94043 17.7302L2.96284 16.7399C3.14809 16.9287 7.61537 21.3496 15.1463 16.8325L15.8802 18.0544C13.1371 19.7002 10.7218 20.2595 8.70547 20.2595Z" fill="black"/>
</svg>
