<svg width="12" height="12" viewBox="0 0 12 12" fill="none" xmlns="http://www.w3.org/2000/svg">
<g clip-path="url(#clip0_162_97)">
<path d="M10.9688 7.03095L12 6L10.9688 4.9688L11.5044 3.61251L10.2426 3.11421V1.75743H8.88579L8.38724 0.495359L7.03095 1.0312L6 0L4.9688 1.0312L3.61251 0.495359L3.11421 1.75743H1.75743V3.11421L0.495359 3.61251L1.0312 4.9688L0 6L1.0312 7.03095L0.495359 8.38724L1.75743 8.88579V10.2426H3.11421L3.61251 11.5044L4.9688 10.9688L6 12L7.03095 10.9688L8.38724 11.5044L8.88579 10.2426H10.2426V8.88579L11.5044 8.38724L10.9688 7.03095Z" fill="#009EFF"/>
<path d="M4.99537 8.17572L3.25879 6.43939L3.86431 5.83387L4.99537 6.96493L8.13607 3.82397L8.74159 4.42949L4.99537 8.17572Z" fill="#FEFEFE"/>
</g>
<defs>
<clipPath id="clip0_162_97">
<rect width="12" height="12" fill="white"/>
</clipPath>
</defs>
</svg>
